<svg xmlns="http://www.w3.org/2000/svg" xmlns:xlink="http://www.w3.org/1999/xlink" width="37.35" height="23.069" viewBox="0 0 37.35 23.069">
  <defs>
    <clipPath id="clip-path">
      <rect id="Rectangle_137" data-name="Rectangle 137" width="37.35" height="23.069" fill="none"/>
    </clipPath>
  </defs>
  <g id="Group_143" data-name="Group 143" clip-path="url(#clip-path)">
    <path id="Path_19" data-name="Path 19" d="M37.013,10.572a28.051,28.051,0,0,0-7.905-7.513A19.372,19.372,0,0,0,16.8.094,19.847,19.847,0,0,0,8.335,3,28.162,28.162,0,0,0,.354,10.54a1.564,1.564,0,0,0,0,1.984,28.887,28.887,0,0,0,6.777,6.755,19.645,19.645,0,0,0,13.449,3.693,19.429,19.429,0,0,0,7.185-2.2,26.465,26.465,0,0,0,8.41-7.178c.435-.549.783-1.172,1.172-1.76v-.606a4.561,4.561,0,0,0-.337-.659" transform="translate(0 0.001)"/>
  </g>
</svg>
