<svg xmlns="http://www.w3.org/2000/svg" xmlns:xlink="http://www.w3.org/1999/xlink" width="37.529" height="22.339" viewBox="0 0 37.529 22.339">
  <defs>
    <clipPath id="clip-path"/>
  </defs>
  <g id="Group_140" data-name="Group 140" transform="translate(0 0)" clip-path="url(#clip-path)">
    <path id="Path_17" data-name="Path 17" d="M37.53,11.463c-.39.57-.74,1.173-1.177,1.7A26.357,26.357,0,0,1,27.9,20.118a20.065,20.065,0,0,1-7.219,2.127A20.289,20.289,0,0,1,7.169,18.669a28.527,28.527,0,0,1-6.81-6.541,1.472,1.472,0,0,1,0-1.922,27.9,27.9,0,0,1,8.02-7.3A20.445,20.445,0,0,1,16.882.091,20.045,20.045,0,0,1,29.247,2.963a27.775,27.775,0,0,1,7.943,7.275,4.359,4.359,0,0,1,.339.639Zm-26.641-.548A7.883,7.883,0,1,0,19,3.284a7.895,7.895,0,0,0-8.114,7.63" transform="translate(0 0.001)"/>
    <path id="Path_18" data-name="Path 18" d="M159.554,76.249a4.247,4.247,0,1,1-4.179-4.259,4.239,4.239,0,0,1,4.179,4.259" transform="translate(-136.538 -65.07)"/>
  </g>
</svg>
